<svg width="640" height="320" viewBox="0 0 640 320" xmlns="http://www.w3.org/2000/svg">
  <defs>
    <linearGradient id="revenueGradient" x1="0" y1="0" x2="1" y2="1">
      <stop offset="0%" stop-color="#1e293b"/>
      <stop offset="100%" stop-color="#334155"/>
    </linearGradient>
    <linearGradient id="revenueAccent" x1="0" y1="0" x2="1" y2="1">
      <stop offset="0%" stop-color="#34d399"/>
      <stop offset="100%" stop-color="#22d3ee"/>
    </linearGradient>
  </defs>
  <rect width="640" height="320" rx="28" fill="url(#revenueGradient)"/>
  
  <!-- Background circles -->
  <circle cx="170" cy="110" r="70" fill="url(#revenueAccent)" opacity="0.25"/>
  <circle cx="250" cy="180" r="120" fill="url(#revenueAccent)" opacity="0.2"/>
  
  <!-- Dollar sign -->
  <text x="80" y="200" fill="url(#revenueAccent)" font-family="Inter, Arial, sans-serif" font-size="120" font-weight="700" opacity="1">$</text>
  
  <!-- Chart bars with growth -->
  <rect x="240" y="180" width="35" height="80" rx="6" fill="#34d399" opacity="1"/>
  <rect x="290" y="160" width="35" height="100" rx="6" fill="#22d3ee" opacity="1"/>
  <rect x="340" y="140" width="35" height="120" rx="6" fill="#10b981" opacity="1"/>
  <rect x="390" y="120" width="35" height="140" rx="6" fill="#34d399" opacity="0.95"/>
  <rect x="440" y="100" width="35" height="160" rx="6" fill="#22d3ee" opacity="1"/>
  
  <!-- Growth percentage badge -->
  <rect x="500" y="80" width="100" height="60" rx="12" fill="rgba(16,185,129,0.3)" stroke="#10b981" stroke-width="2"/>
  <text x="550" y="115" fill="#34d399" font-family="Inter, Arial, sans-serif" font-size="24" font-weight="700" text-anchor="middle">+15%</text>
  <text x="550" y="130" fill="#10b981" font-family="Inter, Arial, sans-serif" font-size="11" text-anchor="middle">Growth</text>
  
  <!-- Trend line -->
  <path d="M 240 240 Q 290 220 340 200 Q 390 180 440 160" fill="none" stroke="url(#revenueAccent)" stroke-width="5" stroke-linecap="round" opacity="0.8"/>
</svg>
