<svg width="640" height="320" viewBox="0 0 640 320" xmlns="http://www.w3.org/2000/svg">
  <defs>
    <linearGradient id="seoGradient" x1="0" y1="0" x2="1" y2="1">
      <stop offset="0%" stop-color="#0f172a"/>
      <stop offset="100%" stop-color="#1e293b"/>
    </linearGradient>
    <linearGradient id="seoAccent" x1="0" y1="0" x2="1" y2="1">
      <stop offset="0%" stop-color="#38bdf8"/>
      <stop offset="100%" stop-color="#818cf8"/>
    </linearGradient>
    <filter id="glow" x="-20%" y="-20%" width="140%" height="140%">
      <feGaussianBlur stdDeviation="12" result="coloredBlur"/>
      <feMerge>
        <feMergeNode in="coloredBlur"/>
        <feMergeNode in="SourceGraphic"/>
      </feMerge>
    </filter>
  </defs>
  <rect width="640" height="320" rx="28" fill="url(#seoGradient)"/>
  <circle cx="520" cy="60" r="80" fill="url(#seoAccent)" opacity="0.35" filter="url(#glow)"/>
  <circle cx="460" cy="260" r="110" fill="url(#seoAccent)" opacity="0.25"/>
  <path d="M80 220C120 180 160 200 200 160C240 120 280 140 320 120C360 100 400 120 440 100C480 80 520 40 560 80" fill="none" stroke="url(#seoAccent)" stroke-width="8" stroke-linecap="round" stroke-linejoin="round" opacity="0.4"/>
  <rect x="90" y="70" width="180" height="110" rx="16" fill="#0f172a" opacity="0.65"/>
  <rect x="110" y="95" width="140" height="16" rx="8" fill="#38bdf8" opacity="0.7"/>
  <rect x="110" y="125" width="100" height="12" rx="6" fill="#94a3b8" opacity="0.8"/>
  <rect x="110" y="150" width="70" height="12" rx="6" fill="#475569" opacity="0.9"/>
  <text x="90" y="250" fill="#e2e8f0" font-family="Inter, Arial, sans-serif" font-weight="600" font-size="48">SEO</text>
  <text x="190" y="250" fill="#cbd5f5" font-family="Inter, Arial, sans-serif" font-size="28">Insights</text>
  <text x="90" y="285" fill="#94a3b8" font-family="Inter, Arial, sans-serif" font-size="18">Key page speed & accessibility signals</text>
</svg>

